# xmcd
#
# Track frame offsets: 
#        150
#        13362
#        36012
#        51717
#        67135
#        91103
#        108430
#
# Disc length: 1666 seconds
#
# Revision: 1
# Processed by: cddbd v1.5.2PL0 Copyright (c) Steve Scherf et al.
# Submitted via: ExactAudioCopy v0.95b4
#
DISCID=61068007
DTITLE=Bruce Robison - It Came From San Antonio
DYEAR=2007
DGENRE=Folk
TTITLE0=It Came From San Antonio
TTITLE1=When It Rains
TTITLE2=Lifeline
TTITLE3=My Baby Now
TTITLE4=Anywhere But Here
TTITLE5=What Makes You Say
TTITLE6=23A
EXTD=YEAR: 2007
EXTT0=
EXTT1=
EXTT2=
EXTT3=
EXTT4=
EXTT5=
EXTT6=
PLAYORDER=
